<svg width="80" height="80" viewBox="0 0 80 80" fill="none" xmlns="http://www.w3.org/2000/svg">
<mask id="mask0_24062_8" style="mask-type:alpha" maskUnits="userSpaceOnUse" x="0" y="0" width="80" height="80">
<rect width="80" height="80" fill="#D9D9D9"/>
</mask>
<g mask="url(#mask0_24062_8)">
<path d="M39.9999 75C37.2221 75 34.861 74.0278 32.9166 72.0833C30.9721 70.1389 29.9999 67.7778 29.9999 65C29.9999 62.2222 30.9721 59.8611 32.9166 57.9167C34.861 55.9722 37.2221 55 39.9999 55C42.7777 55 45.1388 55.9722 47.0833 57.9167C49.0277 59.8611 49.9999 62.2222 49.9999 65C49.9999 67.7778 49.0277 70.1389 47.0833 72.0833C45.1388 74.0278 42.7777 75 39.9999 75ZM39.9999 68.3333C40.9444 68.3333 41.736 68.0139 42.3749 67.375C43.0138 66.7361 43.3333 65.9444 43.3333 65C43.3333 64.0556 43.0138 63.2639 42.3749 62.625C41.736 61.9861 40.9444 61.6667 39.9999 61.6667C39.0555 61.6667 38.2638 61.9861 37.6249 62.625C36.986 63.2639 36.6666 64.0556 36.6666 65C36.6666 65.9444 36.986 66.7361 37.6249 67.375C38.2638 68.0139 39.0555 68.3333 39.9999 68.3333ZM18.3333 62.5C15.5555 62.5 13.1944 61.5278 11.2499 59.5833C9.30547 57.6389 8.33325 55.2778 8.33325 52.5C8.33325 49.7222 9.30547 47.3611 11.2499 45.4167C13.1944 43.4722 15.5555 42.5 18.3333 42.5C21.111 42.5 23.4721 43.4722 25.4166 45.4167C27.361 47.3611 28.3333 49.7222 28.3333 52.5C28.3333 55.2778 27.361 57.6389 25.4166 59.5833C23.4721 61.5278 21.111 62.5 18.3333 62.5ZM61.6666 62.5C58.8888 62.5 56.5277 61.5278 54.5833 59.5833C52.6388 57.6389 51.6666 55.2778 51.6666 52.5C51.6666 49.7222 52.6388 47.3611 54.5833 45.4167C56.5277 43.4722 58.8888 42.5 61.6666 42.5C64.4444 42.5 66.8055 43.4722 68.7499 45.4167C70.6944 47.3611 71.6666 49.7222 71.6666 52.5C71.6666 55.2778 70.6944 57.6389 68.7499 59.5833C66.8055 61.5278 64.4444 62.5 61.6666 62.5ZM18.3333 55.8333C19.2777 55.8333 20.0694 55.5139 20.7083 54.875C21.3471 54.2361 21.6666 53.4444 21.6666 52.5C21.6666 51.5556 21.3471 50.7639 20.7083 50.125C20.0694 49.4861 19.2777 49.1667 18.3333 49.1667C17.3888 49.1667 16.5971 49.4861 15.9583 50.125C15.3194 50.7639 14.9999 51.5556 14.9999 52.5C14.9999 53.4444 15.3194 54.2361 15.9583 54.875C16.5971 55.5139 17.3888 55.8333 18.3333 55.8333ZM61.6666 55.8333C62.611 55.8333 63.4027 55.5139 64.0416 54.875C64.6805 54.2361 64.9999 53.4444 64.9999 52.5C64.9999 51.5556 64.6805 50.7639 64.0416 50.125C63.4027 49.4861 62.611 49.1667 61.6666 49.1667C60.7221 49.1667 59.9305 49.4861 59.2916 50.125C58.6527 50.7639 58.3333 51.5556 58.3333 52.5C58.3333 53.4444 58.6527 54.2361 59.2916 54.875C59.9305 55.5139 60.7221 55.8333 61.6666 55.8333ZM18.3333 37.5C15.5555 37.5 13.1944 36.5278 11.2499 34.5833C9.30547 32.6389 8.33325 30.2778 8.33325 27.5C8.33325 24.7222 9.30547 22.3611 11.2499 20.4167C13.1944 18.4722 15.5555 17.5 18.3333 17.5C21.111 17.5 23.4721 18.4722 25.4166 20.4167C27.361 22.3611 28.3333 24.7222 28.3333 27.5C28.3333 30.2778 27.361 32.6389 25.4166 34.5833C23.4721 36.5278 21.111 37.5 18.3333 37.5ZM61.6666 37.5C58.8888 37.5 56.5277 36.5278 54.5833 34.5833C52.6388 32.6389 51.6666 30.2778 51.6666 27.5C51.6666 24.7222 52.6388 22.3611 54.5833 20.4167C56.5277 18.4722 58.8888 17.5 61.6666 17.5C64.4444 17.5 66.8055 18.4722 68.7499 20.4167C70.6944 22.3611 71.6666 24.7222 71.6666 27.5C71.6666 30.2778 70.6944 32.6389 68.7499 34.5833C66.8055 36.5278 64.4444 37.5 61.6666 37.5ZM18.3333 30.8333C19.2777 30.8333 20.0694 30.5139 20.7083 29.875C21.3471 29.2361 21.6666 28.4444 21.6666 27.5C21.6666 26.5556 21.3471 25.7639 20.7083 25.125C20.0694 24.4861 19.2777 24.1667 18.3333 24.1667C17.3888 24.1667 16.5971 24.4861 15.9583 25.125C15.3194 25.7639 14.9999 26.5556 14.9999 27.5C14.9999 28.4444 15.3194 29.2361 15.9583 29.875C16.5971 30.5139 17.3888 30.8333 18.3333 30.8333ZM61.6666 30.8333C62.611 30.8333 63.4027 30.5139 64.0416 29.875C64.6805 29.2361 64.9999 28.4444 64.9999 27.5C64.9999 26.5556 64.6805 25.7639 64.0416 25.125C63.4027 24.4861 62.611 24.1667 61.6666 24.1667C60.7221 24.1667 59.9305 24.4861 59.2916 25.125C58.6527 25.7639 58.3333 26.5556 58.3333 27.5C58.3333 28.4444 58.6527 29.2361 59.2916 29.875C59.9305 30.5139 60.7221 30.8333 61.6666 30.8333ZM39.9999 25C37.2221 25 34.861 24.0278 32.9166 22.0833C30.9721 20.1389 29.9999 17.7778 29.9999 15C29.9999 12.2222 30.9721 9.86111 32.9166 7.91667C34.861 5.97222 37.2221 5 39.9999 5C42.7777 5 45.1388 5.97222 47.0833 7.91667C49.0277 9.86111 49.9999 12.2222 49.9999 15C49.9999 17.7778 49.0277 20.1389 47.0833 22.0833C45.1388 24.0278 42.7777 25 39.9999 25ZM39.9999 18.3333C40.9444 18.3333 41.736 18.0139 42.3749 17.375C43.0138 16.7361 43.3333 15.9444 43.3333 15C43.3333 14.0556 43.0138 13.2639 42.3749 12.625C41.736 11.9861 40.9444 11.6667 39.9999 11.6667C39.0555 11.6667 38.2638 11.9861 37.6249 12.625C36.986 13.2639 36.6666 14.0556 36.6666 15C36.6666 15.9444 36.986 16.7361 37.6249 17.375C38.2638 18.0139 39.0555 18.3333 39.9999 18.3333Z" fill="#1C1B1F"/>
</g>
</svg>
